# xmcd CD database file
#
# Track frame offsets:
#	150
#	16660
#	27903
#	44641
#
# Disc length: 760 seconds
#
# Revision: 0
# Processed by: cddbd v1.5.2PL0 Copyright (c) Steve Scherf et al.
# Submitted via: CDex 1.94
#
DISCID=2702f604
DTITLE=Nice Horse - A Little Unstable
DYEAR=2017
DGENRE=Country
TTITLE0=Pony Up!
TTITLE1=Jim, Jack, Johnnie, and Jose
TTITLE2=Hold Your Horses
TTITLE3=Put Your Lips On Me
EXTD=YEAR: 2017
EXTT0=
EXTT1=
EXTT2=
EXTT3=
PLAYORDER=
